<svg width="24" height="24" viewBox="0 0 24 24" fill="none" xmlns="http://www.w3.org/2000/svg">
<path d="M11.6821 7.51103L4.00001 13.8381V20.6669C4.00001 20.8437 4.07025 21.0132 4.19528 21.1383C4.3203 21.2633 4.48987 21.3335 4.66668 21.3335L9.33585 21.3214C9.51208 21.3206 9.68079 21.2499 9.8051 21.125C9.9294 21.0001 9.99918 20.831 9.99918 20.6548V16.6669C9.99918 16.4901 10.0694 16.3205 10.1944 16.1955C10.3195 16.0704 10.489 16.0002 10.6658 16.0002H13.3325C13.5093 16.0002 13.6789 16.0704 13.8039 16.1955C13.9289 16.3205 13.9992 16.4901 13.9992 16.6669V20.6519C13.9989 20.7396 14.0159 20.8265 14.0493 20.9076C14.0827 20.9887 14.1318 21.0625 14.1937 21.1246C14.2556 21.1867 14.3292 21.236 14.4102 21.2697C14.4913 21.3033 14.5781 21.3206 14.6658 21.3206L19.3333 21.3335C19.5102 21.3335 19.6797 21.2633 19.8048 21.1383C19.9298 21.0132 20 20.8437 20 20.6669V13.8335L12.3196 7.51103C12.2293 7.43825 12.1168 7.39856 12.0008 7.39856C11.8849 7.39856 11.7724 7.43825 11.6821 7.51103ZM23.8167 11.8114L20.3333 8.9402V3.16895C20.3333 3.03634 20.2807 2.90916 20.1869 2.81539C20.0931 2.72162 19.966 2.66895 19.8333 2.66895H17.5C17.3674 2.66895 17.2402 2.72162 17.1465 2.81539C17.0527 2.90916 17 3.03634 17 3.16895V6.19436L13.2696 3.1252C12.9116 2.8306 12.4624 2.66953 11.9988 2.66953C11.5351 2.66953 11.0859 2.8306 10.7279 3.1252L0.180847 11.8114C0.130217 11.8533 0.0883288 11.9047 0.0575754 11.9627C0.0268221 12.0208 0.00780663 12.0843 0.00161555 12.1497C-0.00457554 12.2151 0.00217909 12.2811 0.0214935 12.3439C0.0408079 12.4066 0.0723035 12.465 0.114181 12.5156L1.17668 13.8073C1.21844 13.8581 1.26981 13.9001 1.32785 13.931C1.38588 13.9619 1.44944 13.9811 1.51489 13.9874C1.58033 13.9937 1.64638 13.987 1.70925 13.9678C1.77212 13.9485 1.83057 13.9171 1.88126 13.8752L11.6821 5.8027C11.7724 5.72991 11.8849 5.69023 12.0008 5.69023C12.1168 5.69023 12.2293 5.72991 12.3196 5.8027L22.1208 13.8752C22.1715 13.9171 22.2298 13.9486 22.2926 13.9679C22.3554 13.9872 22.4214 13.994 22.4867 13.9878C22.5521 13.9816 22.6157 13.9626 22.6737 13.9318C22.7318 13.901 22.7832 13.8592 22.825 13.8085L23.8875 12.5169C23.9293 12.466 23.9607 12.4073 23.9798 12.3442C23.9989 12.2812 24.0053 12.215 23.9987 12.1494C23.9922 12.0839 23.9727 12.0203 23.9414 11.9623C23.9102 11.9043 23.8678 11.853 23.8167 11.8114Z" fill="white"/>
</svg>
